General
Complete name : Mission.Impossible.1996.720p.BluRay.x264.appletv.m4v
Format : MPEG-4
Format profile : Base Media / Version 2
Codec ID : mp42
File size : 2.68 GiB
Duration : 1h 50mn
Overall bit rate mode : Variable
Overall bit rate : 3 485 Kbps
Movie name : Mission: Impossible
Performer : Tom Cruise, Jon Voight, Emmanuelle Béart, Henry Czerny, Jean Reno, Ving Rhames, Kristin Scott Thomas, Vanessa Redgrave, Dale Dye, Marcel Iures, Ion Caramitru, Ingeborga Dapkunaite, Valentina Yakunina, Marek Vasut, Nathan Osgood
Genre : Action, Adventure, Drama, Mystery, Thriller
Recorded date : 1996-05-22
Encoded date : UTC 2011-11-30 01:33:54
Tagged date : UTC 2011-11-30 02:52:49
Writing application : HandBrake 0.9.5 2011010300
Cover : Yes
iTunEXTC : mpaa|PG-13|300|
iTunMOVI : <?xml version="1.0" encoding="UTF-8"?> / <!DOCTYPE plist PUBLIC "-//Apple//DTD PLIST 1.0//EN" "http://www.apple.com/DTDs/PropertyList-1.0.dtd"> / <plist version="1.0"> / <dict> / <key>cast</key> / <array> / <dict> / <key>name</key> / <string>Tom Cruise</string> / </dict> / <dict> / <key>name</key> / <string>Jon Voight</string> / </dict> / <dict> / <key>name</key> / <string>Emmanuelle Béart</string> / </dict> / <dict> / <key>name</key> / <string>Henry Czerny</string> / </dict> / <dict> / <key>name</key> / <string>Jean Reno</string> / </dict> / <dict> / <key>name</key> / <string>Ving Rhames</string> / </dict> / <dict> / <key>name</key> / <string>Kristin Scott Thomas</string> / </dict> / <dict> / <key>name</key> / <string>Vanessa Redgrave</string> / </dict> / <dict> / <key>name</key> / <string>Dale Dye</string> / </dict> / <dict> / <key>name</key> / <string>Marcel Iures</string> / </dict> / <dict> / <key>name</key> / <string>Ion Caramitru</string> / </dict> / <dict> / <key>name</key> / <string>Ingeborga Dapkunaite</string> / </dict> / <dict> / <key>name</key> / <string>Valentina Yakunina</string> / </dict> / <dict> / <key>name</key> / <string>Marek Vasut</string> / </dict> / <dict> / <key>name</key> / <string>Nathan Osgood</string> / </dict> / </array> / <key>directors</key> / <array> / <dict> / <key>name</key> / <string>Brian De Palma</string> / </dict> / </array> / <key>producers</key> / <array> / <dict> / <key>name</key> / <string>Tom Cruise</string> / </dict> / <dict> / <key>name</key> / <string>Paula Wagner</string> / </dict> / </array> / <key>screenwriters</key> / <array> / <dict> / <key>name</key> / <string>David Koepp</string> / </dict> / <dict> / <key>name</key> / <string>Steven Zaillian</string> / </dict> / <dict> / <key>name</key> / <string>Robert Towne</string> / </dict> / </array> / </dict> / </plist>
tvsn : 0
tves : 0
desc : Expect the Impossible.
ldes : When Ethan Hunt (Cruise), leader of a crack espionage team whose perilous operation has gone awry with no explanation, discovers that a mole has penetrated the CIA, he's surprised to learn that he's the primary suspect. To clear his name, Hunt now must ferret out the real double agent and, in the process, even the score in what is sure to be an impossible mission.
hdvd : 1
stik : 9
cnID : 0

Video
ID : 1
Format : AVC
Format/Info : Advanced Video Codec
Format profile : High@L3.1
Format settings, CABAC : Yes
Format settings, ReFrames : 4 frames
Codec ID : avc1
Codec ID/Info : Advanced Video Coding
Duration : 1h 50mn
Bit rate mode : Variable
Bit rate : 2 678 Kbps
Width : 1 280 pixels
Height : 528 pixels
Display aspect ratio : 2.40:1
Frame rate mode : Variable
Frame rate : 23.976 fps
Minimum frame rate : 23.810 fps
Maximum frame rate : 24.390 fps
Color space : YUV
Chroma subsampling : 4:2:0
Bit depth : 8 bits
Scan type : Progressive
Bits/(Pixel*Frame) : 0.165
Stream size : 2.06 GiB (77%)
Writing library : x264 core 112
Encoding settings : cabac=1 / ref=3 / deblock=1:0:0 / analyse=0x3:0x113 / me=hex / subme=7 / psy=1 / psy_rd=1.00:0.00 / mixed_ref=1 / me_range=16 / chroma_me=1 / trellis=1 / 8x8dct=1 / cqm=0 / deadzone=21,11 / fast_pskip=1 / chroma_qp_offset=-2 / threads=12 / sliced_threads=0 / nr=0 / decimate=1 / interlaced=0 / constrained_intra=0 / bframes=3 / b_pyramid=2 / b_adapt=1 / b_bias=0 / direct=1 / weightb=1 / open_gop=0 / weightp=2 / keyint=240 / keyint_min=24 / scenecut=40 / intra_refresh=0 / rc_lookahead=40 / rc=crf / mbtree=1 / crf=19.0 / qcomp=0.60 / qpmin=3 / qpmax=51 / qpstep=4 / ip_ratio=1.40 / aq=1:1.00
Encoded date : UTC 2011-11-30 01:33:54
Tagged date : UTC 2011-11-30 02:44:05
Color primaries : BT.709-5, BT.1361, IEC 61966-2-4, SMPTE RP177
Transfer characteristics : BT.709-5, BT.1361
Matrix coefficients : BT.709-5, BT.1361, IEC 61966-2-4 709, SMPTE RP177

Audio #1
ID : 2
Format : AAC
Format/Info : Advanced Audio Codec
Format profile : LC
Codec ID : 40
Duration : 1h 50mn
Bit rate mode : Variable
Bit rate : 160 Kbps
Maximum bit rate : 332 Kbps
Channel(s) : 2 channels
Channel positions : Front: L R
Sampling rate : 48.0 KHz
Compression mode : Lossy
Stream size : 126 MiB (5%)
Encoded date : UTC 2011-11-30 01:33:54
Tagged date : UTC 2011-11-30 02:44:05

Audio #2
ID : 3
Format : AC-3
Format/Info : Audio Coding 3
Mode extension : CM (complete main)
Codec ID : ac-3
Duration : 1h 50mn
Bit rate mode : Constant
Bit rate : 640 Kbps
Channel(s) : 6 channels
Channel positions : Front: L C R, Side: L R, LFE
Sampling rate : 48.0 KHz
Bit depth : 16 bits
Compression mode : Lossy
Stream size : 505 MiB (18%)
Encoded date : UTC 2011-11-30 01:33:54
Tagged date : UTC 2011-11-30 02:44:05

Text
ID : 4
Format : Apple text
Codec ID : text
Duration : 1h 50mn
Bit rate : 0
Stream size : 23.0 Bytes (0%)
Encoded date : UTC 2011-11-30 02:52:49
Tagged date : UTC 2011-11-30 02:52:49

General
Complete name : Mission.Impossible II.2000.720p.BluRay.x264.appletv.m4v
Format : MPEG-4
Format profile : Base Media / Version 2
Codec ID : mp42
File size : 3.86 GiB
Duration : 2h 3mn
Overall bit rate mode : Variable
Overall bit rate : 4 473 Kbps
Movie name : Mission: Impossible II
Performer : Tom Cruise, Dougray Scott, Thandie Newton, Ving Rhames, Richard Roxburgh, John Polson, Brendan Gleeson, Rade Šerbedžija, William Mapother, Dominic Purcell, Mathew Wilkinson, Nicholas Bell, Cristina Brogers, Kee Chan, Kim Fleming
Genre : Action, Adventure, Mystery, Thriller
Recorded date : 2000-05-24
Encoded date : UTC 2011-11-30 02:47:58
Tagged date : UTC 2011-11-30 04:20:44
Writing application : HandBrake 0.9.5 2011010300
Cover : Yes
iTunEXTC : mpaa|PG-13|300|
iTunMOVI : <?xml version="1.0" encoding="UTF-8"?> / <!DOCTYPE plist PUBLIC "-//Apple//DTD PLIST 1.0//EN" "http://www.apple.com/DTDs/PropertyList-1.0.dtd"> / <plist version="1.0"> / <dict> / <key>cast</key> / <array> / <dict> / <key>name</key> / <string>Tom Cruise</string> / </dict> / <dict> / <key>name</key> / <string>Dougray Scott</string> / </dict> / <dict> / <key>name</key> / <string>Thandie Newton</string> / </dict> / <dict> / <key>name</key> / <string>Ving Rhames</string> / </dict> / <dict> / <key>name</key> / <string>Richard Roxburgh</string> / </dict> / <dict> / <key>name</key> / <string>John Polson</string> / </dict> / <dict> / <key>name</key> / <string>Brendan Gleeson</string> / </dict> / <dict> / <key>name</key> / <string>Rade Šerbedžija</string> / </dict> / <dict> / <key>name</key> / <string>William Mapother</string> / </dict> / <dict> / <key>name</key> / <string>Dominic Purcell</string> / </dict> / <dict> / <key>name</key> / <string>Mathew Wilkinson</string> / </dict> / <dict> / <key>name</key> / <string>Nicholas Bell</string> / </dict> / <dict> / <key>name</key> / <string>Cristina Brogers</string> / </dict> / <dict> / <key>name</key> / <string>Kee Chan</string> / </dict> / <dict> / <key>name</key> / <string>Kim Fleming</string> / </dict> / </array> / <key>directors</key> / <array> / <dict> / <key>name</key> / <string>John Woo</string> / </dict> / </array> / <key>producers</key> / <array> / <dict> / <key>name</key> / <string>Tom Cruise</string> / </dict> / <dict> / <key>name</key> / <string>Paula Wagner</string> / </dict> / </array> / <key>screenwriters</key> / <array> / <dict> / <key>name</key> / <string>Robert Towne</string> / </dict> / </array> / </dict> / </plist>
tvsn : 0
tves : 0
desc : Expect the impossible again
ldes : With computer genius Luther Stickell at his side and a beautiful thief on his mind, agent Ethan Hunt races across Australia and Spain to stop a former IMF agent from unleashing a genetically engineered biological weapon called Chimera. This mission, should Hunt choose to accept it, plunges him into the center of an international crisis of terrifying magnitude.
hdvd : 1
stik : 9
cnID : 0

Video
ID : 1
Format : AVC
Format/Info : Advanced Video Codec
Format profile : High@L3.1
Format settings, CABAC : Yes
Format settings, ReFrames : 4 frames
Codec ID : avc1
Codec ID/Info : Advanced Video Coding
Duration : 2h 3mn
Bit rate mode : Variable
Bit rate : 3 668 Kbps
Width : 1 280 pixels
Height : 528 pixels
Display aspect ratio : 2.40:1
Frame rate mode : Variable
Frame rate : 23.976 fps
Minimum frame rate : 23.810 fps
Maximum frame rate : 24.390 fps
Color space : YUV
Chroma subsampling : 4:2:0
Bit depth : 8 bits
Scan type : Progressive
Bits/(Pixel*Frame) : 0.226
Stream size : 3.17 GiB (82%)
Writing library : x264 core 112
Encoding settings : cabac=1 / ref=3 / deblock=1:0:0 / analyse=0x3:0x113 / me=hex / subme=7 / psy=1 / psy_rd=1.00:0.00 / mixed_ref=1 / me_range=16 / chroma_me=1 / trellis=1 / 8x8dct=1 / cqm=0 / deadzone=21,11 / fast_pskip=1 / chroma_qp_offset=-2 / threads=12 / sliced_threads=0 / nr=0 / decimate=1 / interlaced=0 / constrained_intra=0 / bframes=3 / b_pyramid=2 / b_adapt=1 / b_bias=0 / direct=1 / weightb=1 / open_gop=0 / weightp=2 / keyint=240 / keyint_min=24 / scenecut=40 / intra_refresh=0 / rc_lookahead=40 / rc=crf / mbtree=1 / crf=19.0 / qcomp=0.60 / qpmin=3 / qpmax=51 / qpstep=4 / ip_ratio=1.40 / aq=1:1.00
Encoded date : UTC 2011-11-30 02:47:58
Tagged date : UTC 2011-11-30 04:14:44
Color primaries : BT.709-5, BT.1361, IEC 61966-2-4, SMPTE RP177
Transfer characteristics : BT.709-5, BT.1361
Matrix coefficients : BT.709-5, BT.1361, IEC 61966-2-4 709, SMPTE RP177

Audio #1
ID : 2
Format : AAC
Format/Info : Advanced Audio Codec
Format profile : LC
Codec ID : 40
Duration : 2h 3mn
Bit rate mode : Variable
Bit rate : 160 Kbps
Maximum bit rate : 284 Kbps
Channel(s) : 2 channels
Channel positions : Front: L R
Sampling rate : 48.0 KHz
Compression mode : Lossy
Stream size : 141 MiB (4%)
Encoded date : UTC 2011-11-30 02:47:58
Tagged date : UTC 2011-11-30 04:14:44

Audio #2
ID : 3
Format : AC-3
Format/Info : Audio Coding 3
Mode extension : CM (complete main)
Codec ID : ac-3
Duration : 2h 3mn
Bit rate mode : Constant
Bit rate : 640 Kbps
Channel(s) : 6 channels
Channel positions : Front: L C R, Side: L R, LFE
Sampling rate : 48.0 KHz
Bit depth : 16 bits
Compression mode : Lossy
Stream size : 566 MiB (14%)
Encoded date : UTC 2011-11-30 02:47:58
Tagged date : UTC 2011-11-30 04:14:44

Text
ID : 4
Format : Apple text
Codec ID : text
Duration : 2h 3mn
Bit rate : 0
Stream size : 23.0 Bytes (0%)
Encoded date : UTC 2011-11-30 04:20:44
Tagged date : UTC 2011-11-30 04:20:44

General
Complete name : Mission.Impossible.III.2006.720p.BluRay.x264.appletv.m4v
Format : MPEG-4
Format profile : Base Media / Version 2
Codec ID : mp42
File size : 3.73 GiB
Duration : 2h 5mn
Overall bit rate mode : Variable
Overall bit rate : 4 257 Kbps
Movie name : Mission: Impossible III
Performer : Tom Cruise, Philip Seymour Hoffman, Ving Rhames, Billy Crudup, Jonathan Rhys Meyers, Michelle Monaghan, Keri Russell, Maggie Q, Simon Pegg
Genre : Action, Adventure, Thriller
Recorded date : 2006-04-24
Encoded date : UTC 2011-11-30 04:18:36
Tagged date : UTC 2011-11-30 06:26:48
Writing application : HandBrake 0.9.5 2011010300
Cover : Yes
iTunEXTC : mpaa|PG-13|300|
iTunMOVI : <?xml version="1.0" encoding="UTF-8"?> / <!DOCTYPE plist PUBLIC "-//Apple//DTD PLIST 1.0//EN" "http://www.apple.com/DTDs/PropertyList-1.0.dtd"> / <plist version="1.0"> / <dict> / <key>cast</key> / <array> / <dict> / <key>name</key> / <string>Tom Cruise</string> / </dict> / <dict> / <key>name</key> / <string>Philip Seymour Hoffman</string> / </dict> / <dict> / <key>name</key> / <string>Ving Rhames</string> / </dict> / <dict> / <key>name</key> / <string>Billy Crudup</string> / </dict> / <dict> / <key>name</key> / <string>Jonathan Rhys Meyers</string> / </dict> / <dict> / <key>name</key> / <string>Michelle Monaghan</string> / </dict> / <dict> / <key>name</key> / <string>Keri Russell</string> / </dict> / <dict> / <key>name</key> / <string>Maggie Q</string> / </dict> / <dict> / <key>name</key> / <string>Simon Pegg</string> / </dict> / </array> / <key>directors</key> / <array> / <dict> / <key>name</key> / <string>J.J. Abrams</string> / </dict> / </array> / <key>producers</key> / <array> / <dict> / <key>name</key> / <string>Tom Cruise</string> / </dict> / <dict> / <key>name</key> / <string>Paula Wagner</string> / </dict> / </array> / </dict> / </plist>
tvsn : 0
tves : 0
ldes : Super-spy Ethan Hunt has retired from active duty to train new IMF agents. But he is called back into action to confront the toughest villain he's ever faced - Owen Davian, an international weapons and information provider with no remorse and no conscience. Hunt assembles his team, his old friend Luther Strickell, transportation expert Declan, background operative Zhen, and fresh recruit Lindsey..
hdvd : 1
stik : 9
cnID : 0

Video
ID : 1
Format : AVC
Format/Info : Advanced Video Codec
Format profile : High@L3.1
Format settings, CABAC : Yes
Format settings, ReFrames : 4 frames
Codec ID : avc1
Codec ID/Info : Advanced Video Coding
Duration : 2h 5mn
Bit rate mode : Variable
Bit rate : 3 449 Kbps
Width : 1 280 pixels
Height : 528 pixels
Display aspect ratio : 2.40:1
Frame rate mode : Variable
Frame rate : 23.976 fps
Minimum frame rate : 23.438 fps
Maximum frame rate : 24.390 fps
Color space : YUV
Chroma subsampling : 4:2:0
Bit depth : 8 bits
Scan type : Progressive
Bits/(Pixel*Frame) : 0.213
Stream size : 3.02 GiB (81%)
Writing library : x264 core 112
Encoding settings : cabac=1 / ref=3 / deblock=1:0:0 / analyse=0x3:0x113 / me=hex / subme=7 / psy=1 / psy_rd=1.00:0.00 / mixed_ref=1 / me_range=16 / chroma_me=1 / trellis=1 / 8x8dct=1 / cqm=0 / deadzone=21,11 / fast_pskip=1 / chroma_qp_offset=-2 / threads=12 / sliced_threads=0 / nr=0 / decimate=1 / interlaced=0 / constrained_intra=0 / bframes=3 / b_pyramid=2 / b_adapt=1 / b_bias=0 / direct=1 / weightb=1 / open_gop=0 / weightp=2 / keyint=240 / keyint_min=24 / scenecut=40 / intra_refresh=0 / rc_lookahead=40 / rc=crf / mbtree=1 / crf=19.0 / qcomp=0.60 / qpmin=3 / qpmax=51 / qpstep=4 / ip_ratio=1.40 / aq=1:1.00
Encoded date : UTC 2011-11-30 04:18:36
Tagged date : UTC 2011-11-30 05:37:47
Color primaries : BT.709-5, BT.1361, IEC 61966-2-4, SMPTE RP177
Transfer characteristics : BT.709-5, BT.1361
Matrix coefficients : BT.709-5, BT.1361, IEC 61966-2-4 709, SMPTE RP177

Audio #1
ID : 2
Format : AAC
Format/Info : Advanced Audio Codec
Format profile : LC
Codec ID : 40
Duration : 2h 5mn
Bit rate mode : Variable
Bit rate : 160 Kbps
Maximum bit rate : 206 Kbps
Channel(s) : 2 channels
Channel positions : Front: L R
Sampling rate : 48.0 KHz
Compression mode : Lossy
Stream size : 143 MiB (4%)
Encoded date : UTC 2011-11-30 04:18:36
Tagged date : UTC 2011-11-30 05:37:47

Audio #2
ID : 3
Format : AC-3
Format/Info : Audio Coding 3
Mode extension : CM (complete main)
Codec ID : ac-3
Duration : 2h 5mn
Bit rate mode : Constant
Bit rate : 640 Kbps
Channel(s) : 6 channels
Channel positions : Front: L C R, Side: L R, LFE
Sampling rate : 48.0 KHz
Bit depth : 16 bits
Compression mode : Lossy
Stream size : 574 MiB (15%)
Encoded date : UTC 2011-11-30 04:18:36
Tagged date : UTC 2011-11-30 05:37:47

Text
ID : 4
Format : Apple text
Codec ID : text
Duration : 2h 5mn
Bit rate : 0
Stream size : 23.0 Bytes (0%)
Encoded date : UTC 2011-11-30 06:26:48
Tagged date : UTC 2011-11-30 06:26:48

Content works on appletv gen 1-2 all media players and, also all iphones and ipads as well as all other tablets hope you enjoy as I do. 